{
    "asset" : {
        "generator" : "Khronos glTF Blender I/O v1.6.16",
        "version" : "2.0"
    },
    "scene" : 0,
    "scenes" : [
        {
            "name" : "Scene",
            "nodes" : [
                0,
                1,
                2
            ]
        }
    ],
    "nodes" : [
        {
            "name" : "Light",
            "rotation" : [
                0.16907575726509094,
                0.7558803558349609,
                -0.27217137813568115,
                0.570947527885437
            ],
            "translation" : [
                4.076245307922363,
                5.903861999511719,
                -1.0054539442062378
            ]
        },
        {
            "name" : "Camera",
            "rotation" : [
                0.483536034822464,
                0.33687159419059753,
                -0.20870360732078552,
                0.7804827094078064
            ],
            "translation" : [
                7.358891487121582,
                4.958309173583984,
                6.925790786743164
            ]
        },
        {
            "mesh" : 0,
            "name" : "Cube_Material.001_0.001",
            "rotation" : [
                -0.7071068286895752,
                0,
                0,
                0.7071067094802856
            ],
            "scale" : [
                100,
                100.00001525878906,
                100.00001525878906
            ],
            "translation" : [
                0,
                0,
                7.154761791229248
            ]
        }
    ],
    "meshes" : [
        {
            "name" : "Cube_Material.001_0.002",
            "primitives" : [
                {
                    "attributes" : {
                        "POSITION" : 0,
                        "NORMAL" : 1,
                        "TEXCOORD_0" : 2
                    },
                    "indices" : 3
                },
                {
                    "attributes" : {
                        "POSITION" : 4,
                        "NORMAL" : 5,
                        "TEXCOORD_0" : 6
                    },
                    "indices" : 7
                }
            ]
        }
    ],
    "accessors" : [
        {
            "bufferView" : 0,
            "componentType" : 5126,
            "count" : 12191,
            "max" : [
                0.9975409507751465,
                0.032435234636068344,
                0.9100151062011719
            ],
            "min" : [
                -0.9141802191734314,
                -0.19892174005508423,
                -1.0368592739105225
            ],
            "type" : "VEC3"
        },
        {
            "bufferView" : 1,
            "componentType" : 5126,
            "count" : 12191,
            "type" : "VEC3"
        },
        {
            "bufferView" : 2,
            "componentType" : 5126,
            "count" : 12191,
            "type" : "VEC2"
        },
        {
            "bufferView" : 3,
            "componentType" : 5123,
            "count" : 16008,
            "type" : "SCALAR"
        },
        {
            "bufferView" : 4,
            "componentType" : 5126,
            "count" : 48,
            "max" : [
                1.036010503768921,
                0.002282559871673584,
                0.6044182181358337
            ],
            "min" : [
                -0.7304762601852417,
                -0.1958840936422348,
                -1.0560235977172852
            ],
            "type" : "VEC3"
        },
        {
            "bufferView" : 5,
            "componentType" : 5126,
            "count" : 48,
            "type" : "VEC3"
        },
        {
            "bufferView" : 6,
            "componentType" : 5126,
            "count" : 48,
            "type" : "VEC2"
        },
        {
            "bufferView" : 7,
            "componentType" : 5123,
            "count" : 174,
            "type" : "SCALAR"
        }
    ],
    "bufferViews" : [
        {
            "buffer" : 0,
            "byteLength" : 146292,
            "byteOffset" : 0
        },
        {
            "buffer" : 0,
            "byteLength" : 146292,
            "byteOffset" : 146292
        },
        {
            "buffer" : 0,
            "byteLength" : 97528,
            "byteOffset" : 292584
        },
        {
            "buffer" : 0,
            "byteLength" : 32016,
            "byteOffset" : 390112
        },
        {
            "buffer" : 0,
            "byteLength" : 576,
            "byteOffset" : 422128
        },
        {
            "buffer" : 0,
            "byteLength" : 576,
            "byteOffset" : 422704
        },
        {
            "buffer" : 0,
            "byteLength" : 384,
            "byteOffset" : 423280
        },
        {
            "buffer" : 0,
            "byteLength" : 348,
            "byteOffset" : 423664
        }
    ],
    "buffers" : [
        {
            "byteLength" : 424012,
            "uri" : "data:application/octet-stream;base64,"
        }
    ]
}
